HIERARCHY
ROOT Hips
{
	OFFSET -3.958830 18.904000 13.208200
	CHANNELS 6 Xposition Yposition Zposition Zrotation Yrotation Xrotation 
	JOINT LHipJoint
	{
		OFFSET 0.000000 0.000000 0.000000
		CHANNELS 3 Zrotation Yrotation Xrotation
		JOINT LeftUpLeg
		{
			OFFSET 1.800000 -1.400000 0.085000
			CHANNELS 3 Zrotation Yrotation Xrotation
			JOINT LeftLeg
			{
				OFFSET 2.215000 -6.000000 0.000000
				CHANNELS 3 Zrotation Yrotation Xrotation
				JOINT LeftFoot
				{
					OFFSET 2.500000 -6.900000 0.000000
					CHANNELS 3 Zrotation Yrotation Xrotation
					JOINT LeftToeBase
					{
						OFFSET 0.200000 -0.500000 1.950000
						CHANNELS 3 Zrotation Yrotation Xrotation
						End Site
						{
							OFFSET 0.000000 0.000000 0.000000
						}
					}
				}
			}
		}
	}
	JOINT RHipJoint
	{
		OFFSET 0.000000 0.000000 0.000000
		CHANNELS 3 Zrotation Yrotation Xrotation
		JOINT RightUpLeg
		{
			OFFSET -1.800000 -1.400000 0.085000
			CHANNELS 3 Zrotation Yrotation Xrotation
			JOINT RightLeg
			{
				OFFSET -2.215000 -6.000000 0.000000
				CHANNELS 3 Zrotation Yrotation Xrotation
				JOINT RightFoot
				{
					OFFSET -2.500000 -6.900000 0.000000
					CHANNELS 3 Zrotation Yrotation Xrotation
					JOINT RightToeBase
					{
						OFFSET -0.200000 -0.500000 1.950000
						CHANNELS 3 Zrotation Yrotation Xrotation
						End Site
						{
							OFFSET 0.000000 0.000000 0.000000
						}
					}
				}
			}
		}
	}
	JOINT LowerBack
	{
		OFFSET 0.000000 0.000000 0.000000
		CHANNELS 3 Zrotation Yrotation Xrotation
		JOINT Spine
		{
			OFFSET -0.087000 1.940000 -0.288900
			CHANNELS 3 Zrotation Yrotation Xrotation
			JOINT Spine1
			{
				OFFSET 0.000000 1.950000 0.060000
				CHANNELS 3 Zrotation Yrotation Xrotation
				JOINT Neck
				{
					OFFSET 0.000000 0.000000 0.000000
					CHANNELS 3 Zrotation Yrotation Xrotation
					JOINT Neck1
					{
						OFFSET 0.000000 1.600000 0.340000
						CHANNELS 3 Zrotation Yrotation Xrotation
						JOINT Head
						{
							OFFSET 0.000000 1.667000 -0.240000
							CHANNELS 3 Zrotation Yrotation Xrotation
							End Site
							{
								OFFSET 0.000000 0.000000 0.000000
							}
						}
					}
				}
				JOINT LeftShoulder
				{
					OFFSET 0.000000 0.000000 0.000000
					CHANNELS 3 Zrotation Yrotation Xrotation
					JOINT LeftArm
					{
						OFFSET 2.700000 1.550000 -0.730000
						CHANNELS 3 Zrotation Yrotation Xrotation
						JOINT LeftForeArm
						{
							OFFSET 5.450000 0.000000 0.000000
							CHANNELS 3 Zrotation Yrotation Xrotation
							JOINT LeftHand
							{
								OFFSET 3.450000 0.000000 0.000000
								CHANNELS 3 Zrotation Yrotation Xrotation
								JOINT LeftHandIndex1
								{
									OFFSET 0.750000 0.000000 0.000000
									CHANNELS 3 Zrotation Yrotation Xrotation
									End Site
									{
										OFFSET 0.000000 0.000000 0.000000
									}
								}
							}
						}
					}
				}
				JOINT RightShoulder
				{
					OFFSET 0.000000 0.000000 0.000000
					CHANNELS 3 Zrotation Yrotation Xrotation
					JOINT RightArm
					{
						OFFSET -2.700000 1.550000 -0.730000
						CHANNELS 3 Zrotation Yrotation Xrotation
						JOINT RightForeArm
						{
							OFFSET -5.450000 0.000000 0.000000
							CHANNELS 3 Zrotation Yrotation Xrotation
							JOINT RightHand
							{
								OFFSET -3.450000 0.000000 0.000000
								CHANNELS 3 Zrotation Yrotation Xrotation
								JOINT RightHandIndex1
								{
									OFFSET -0.750000 0.000000 0.000000
									CHANNELS 3 Zrotation Yrotation Xrotation
									End Site
									{
										OFFSET 0.000000 0.000000 0.000000
									}
								}
							}
						}
					}
				}
			}
		}
	}
}
MOTION
Frames: 11
Frame Time: 0.016667
-6.756170 16.101920 5.476010 -9.350307 -28.114074 8.205003 -15.408781 13.758214 2.730673 26.547790 -3.879676 5.812047 -5.313510 8.474690 13.611349 0.460518 6.612366 2.333298 0.180700 0.219810 0.051860 18.052670 -8.804241 4.086125 0.547816 8.403443 -36.133617 18.091866 -5.469139 15.605710 -0.092254 -2.474403 3.352474 0.143400 0.128180 0.073860 -2.663148 -4.396912 -7.968705 -12.346047 -5.440444 11.601903 -4.200165 -6.977231 -7.486738 1.228689 -9.781156 -13.099080 -19.846375 16.809449 16.464338 2.720110 10.742480 -13.908730 -1.570351 2.064500 3.822952 -1.094219 7.917508 0.055278 1.697236 1.743023 -0.742534 -3.775790 3.064057 0.197860 -0.024180 0.086050 0.105310 3.316594 2.906177 8.219031 5.663513 -22.995645 -2.370272 7.669966 1.598448 -1.578540 2.699246 -0.840756 -0.068260 0.178550 -0.002970 0.009060 
-6.926740 16.093290 5.515000 -8.852755 -29.231054 7.779266 -15.400925 13.741306 2.788341 26.408579 -4.075536 6.684903 -5.530401 8.424652 12.943530 0.484215 6.639400 2.327818 0.211630 0.260500 0.060960 18.059537 -8.823839 4.058544 1.513862 8.474014 -35.825528 17.471136 -5.861555 17.779712 -0.130955 -2.632396 3.287877 0.165770 0.115780 0.074160 -2.673048 -4.401740 -7.967105 -13.222901 -5.789682 11.117195 -5.101359 -7.333506 -7.473445 1.330460 -9.923943 -13.537387 -20.340726 16.729568 16.326203 3.294390 10.335430 -14.082880 -0.409642 1.475613 3.965378 -1.469256 5.025862 0.111834 1.505164 2.537805 -0.798490 -3.786709 3.048689 0.196370 -0.037870 0.097790 0.116730 2.166886 3.374311 8.547354 5.088157 -22.710244 -2.174441 6.989583 0.937568 -1.592514 2.734785 -0.800229 -0.054280 0.177570 -0.019110 0.017920 
-7.096180 16.090990 5.551230 -8.357589 -30.524838 7.222782 -15.405776 13.729016 2.861823 26.508921 -4.163083 7.196576 -6.426912 8.729883 12.899473 0.508310 6.772068 2.273669 0.221050 0.270330 0.080520 18.053101 -8.834635 4.018405 2.596448 8.500052 -35.106531 16.827589 -6.180056 19.565333 -0.173871 -2.771366 3.232060 0.166890 0.100540 0.085390 -2.638456 -4.435615 -7.992621 -14.444559 -6.278780 10.702295 -5.822742 -8.003067 -7.687194 1.781785 -9.773887 -13.875280 -20.357701 17.639807 16.868205 3.177070 11.451050 -14.357340 0.275479 0.848725 4.147388 -1.175784 3.248270 0.095282 0.212802 5.154322 -1.116015 -3.826867 3.001510 0.215140 -0.042570 0.119020 0.110340 0.800419 3.670056 8.638142 3.884659 -21.638099 -2.091880 7.584806 1.095524 -1.647768 2.723089 -0.746789 -0.050840 0.170270 -0.022060 0.006710 
-7.250680 16.081470 5.593720 -8.140698 -31.693081 6.819254 -15.407728 13.669706 2.927361 26.877353 -4.192273 7.352551 -7.844262 9.303500 13.312673 0.528144 6.981890 2.193443 0.224530 0.276920 0.095180 18.055409 -8.822674 4.000226 3.239782 8.558376 -34.541282 17.253658 -6.756993 21.207319 -0.235428 -3.028948 3.138027 0.175160 0.098010 0.081010 -2.641565 -4.416527 -8.034961 -14.958990 -6.687354 10.463103 -6.744433 -8.454132 -7.952288 2.160060 -9.691424 -14.055312 -20.357305 18.331786 17.056491 3.180900 12.246420 -14.726590 -0.003832 0.490081 4.101145 -1.348876 2.149803 0.126640 1.297239 5.503105 -1.032430 -3.864023 2.949860 0.230920 -0.044090 0.128810 0.104030 0.454158 3.780758 8.770212 2.736445 -20.787298 -1.687457 6.185082 0.965268 -1.476971 2.740904 -0.698506 -0.062060 0.185220 -0.020180 -0.004380 
-7.399510 16.078270 5.625310 -7.979858 -32.679081 6.455678 -15.392812 13.617455 2.976765 27.351473 -4.205303 6.808244 -9.166216 9.937858 14.271131 0.551326 7.153103 2.120625 0.222320 0.271960 0.104490 18.064099 -8.847414 4.008615 3.940526 8.647428 -34.032301 17.423137 -7.236253 22.717589 -0.287682 -3.248326 3.065831 0.168160 0.085940 0.072860 -2.665981 -4.323235 -8.100656 -15.659796 -6.557509 10.646772 -6.891206 -8.603832 -8.741105 2.512616 -9.899350 -14.368336 -21.077887 17.904751 17.581849 2.817810 12.016700 -14.794030 0.748955 0.389073 3.931139 -2.226201 -0.383907 0.251728 0.457567 5.321847 -1.061149 -3.857885 2.916873 0.242750 -0.055100 0.138410 0.099590 -0.699028 3.949538 9.089592 1.784867 -21.108030 -1.458384 5.407920 0.683469 -1.412627 2.766580 -0.632218 -0.064100 0.191910 -0.022930 -0.008890 
-7.526460 16.063350 5.655720 -7.704909 -33.742681 5.414429 -15.388510 13.564421 3.001276 27.902093 -4.093585 5.933890 -10.944589 11.099257 16.651769 0.579305 7.481413 1.975797 0.241830 0.297370 0.118970 18.071624 -8.877548 3.993399 4.390756 8.673929 -33.363796 17.618694 -7.921713 24.835133 -0.369460 -3.595381 2.937524 0.184770 0.070620 0.070700 -2.679299 -4.232889 -8.139665 -16.415125 -6.385968 11.179238 -7.442844 -8.507487 -8.639253 2.686744 -9.802297 -14.369426 -20.960078 17.742974 18.224760 3.059930 11.932650 -15.149770 0.606451 0.149305 3.551120 -2.245226 -2.381262 0.447948 -0.357148 4.125212 -1.011150 -3.835585 2.916960 0.255020 -0.066220 0.152570 0.099950 -0.898997 4.078985 9.289606 0.612661 -21.423919 -1.038045 4.230119 1.086010 -1.247850 2.763472 -0.629051 -0.062510 0.195820 -0.030590 -0.013370 
-7.659230 16.060920 5.671270 -7.460552 -35.000521 4.498853 -15.377502 13.433149 3.050498 28.592672 -4.057211 4.463805 -13.246074 12.785045 20.060677 0.655261 7.962372 1.767879 0.272710 0.330890 0.141430 18.093357 -8.916737 3.998327 5.116210 8.844182 -32.738495 17.653793 -8.497934 26.838224 -0.458820 -3.907574 2.819115 0.196570 0.044030 0.073230 -2.742166 -3.983359 -8.210019 -17.586784 -5.932610 11.726459 -7.547381 -8.339346 -8.965630 2.813580 -9.590208 -14.430760 -20.565464 17.626629 19.045092 4.027450 11.753890 -15.661220 0.343456 -0.348353 3.335004 -2.515627 -4.033377 0.600364 -0.258843 2.435723 -0.833541 -3.802599 2.927953 0.271590 -0.092620 0.177760 0.103570 -0.860904 4.400933 9.514299 -0.718301 -21.786386 -0.621215 3.275410 0.904921 -1.138655 2.790875 -0.625625 -0.047420 0.188610 -0.048320 -0.013500 
-7.772740 16.048850 5.678860 -7.606261 -36.492389 4.063951 -15.390891 13.216349 3.192668 29.527960 -4.092827 2.574682 -16.183514 14.813229 23.278643 0.751617 8.598793 1.510664 0.288140 0.346180 0.158490 18.111643 -8.881177 3.992726 5.709851 9.121730 -32.306772 17.766605 -9.089795 28.769966 -0.543064 -4.232338 2.700980 0.207000 0.029450 0.074960 -2.808537 -3.753016 -8.314031 -18.252036 -5.267734 12.519530 -7.297985 -7.973245 -9.446618 2.992656 -9.542198 -14.339179 -20.342201 17.512849 19.089818 4.198450 11.754700 -16.521090 -0.403862 -0.665841 3.012089 -2.887814 -5.286048 0.753736 0.363321 -0.120262 -0.581635 -3.779246 2.930109 0.290850 -0.105400 0.193180 0.098850 -0.411348 4.768712 9.639117 -3.026562 -22.941681 0.009612 2.581404 1.154053 -1.048509 2.775838 -0.644517 -0.047840 0.194410 -0.049670 -0.021730 
-7.880200 16.026960 5.692650 -7.641261 -37.914935 3.623197 -15.429262 12.953738 3.444626 30.512908 -4.202684 0.705494 -19.934278 17.218405 25.983840 0.908921 9.358379 1.233741 0.257370 0.313810 0.159140 18.112199 -8.821491 3.928065 6.046631 9.120036 -31.581161 18.183349 -9.672185 29.921796 -0.596929 -4.511104 2.611952 0.190070 0.033620 0.075870 -2.825232 -3.561465 -8.445475 -18.849779 -4.663253 12.952785 -7.536585 -7.661888 -9.987984 3.710705 -9.087390 -14.146320 -19.283712 17.880532 19.917826 3.453760 12.916490 -16.087080 -1.801367 -0.998132 2.584977 -2.993701 -6.128895 0.711565 2.208946 -2.906105 -0.321202 -3.803319 2.908545 0.293550 -0.086060 0.188980 0.079110 -0.424143 4.967516 9.664990 -4.931833 -23.611496 0.427694 2.418903 1.560113 -1.007079 2.748376 -0.645095 -0.062930 0.189740 -0.034290 -0.039130 
-7.983200 16.005630 5.697820 -7.133973 -39.473192 2.677094 -15.470368 12.695507 3.739669 31.117589 -4.326446 -0.989342 -24.125602 19.710950 28.107350 1.104169 10.097710 0.983296 0.251040 0.304760 0.157740 18.111321 -8.771535 3.819812 6.531613 8.937366 -30.478139 17.891602 -9.981570 31.004142 -0.640356 -4.706494 2.546306 0.184210 0.038990 0.083020 -2.837205 -3.412279 -8.552066 -19.919365 -4.223731 13.079716 -7.464134 -7.473852 -9.961882 4.035909 -9.002690 -14.441488 -19.357721 18.392867 20.433481 3.681470 13.471300 -15.446490 -2.061333 -1.792233 2.723013 -3.966082 -7.520131 0.827893 2.932255 -2.186147 -0.361145 -3.841981 2.885288 0.293320 -0.079440 0.188620 0.075600 -0.701635 5.808002 9.891897 -6.957793 -23.415317 0.774662 2.629335 1.004906 -1.068808 2.759741 -0.618780 -0.063090 0.182920 -0.028390 -0.041190 
-8.065360 15.994350 5.706430 -6.941355 -41.613758 1.866497 -15.500483 12.470006 3.989821 31.211711 -4.417369 -2.423711 -27.966710 21.860816 29.607944 1.263540 10.679588 0.796510 0.257110 0.318900 0.166640 18.113520 -8.730335 3.737796 6.753405 8.787631 -29.519682 18.080801 -10.553932 32.297611 -0.710494 -4.995948 2.445393 0.199120 0.035990 0.078530 -2.875547 -3.288266 -8.637447 -19.943789 -3.775298 13.317745 -8.368737 -6.904831 -9.916011 4.428573 -8.922389 -14.525610 -19.145606 18.221842 20.392076 3.637670 13.485650 -15.880280 -2.481889 -2.301142 2.295630 -4.917320 -10.205828 0.998548 4.155209 -1.505382 -0.397610 -3.889561 2.835527 0.297760 -0.079310 0.193830 0.069980 -1.004723 6.376489 10.229878 -7.518499 -23.526498 0.967953 1.832385 0.712279 -1.011374 2.779129 -0.582538 -0.069090 0.195920 -0.026270 -0.046120 
